# xmcd CD database file
#
# Track frame offsets:
#	150
#	54453
#	87643
#	165627
#
# Disc length: 2930 seconds
#
# Revision: 0
# Processed by: cddbd v1.5.2PL0 Copyright (c) Steve Scherf et al.
# Submitted via: CDex 1.70beta2
#
DISCID=2d0b7004
DTITLE=Bruce Russell and Ralf Wehowsky - Midnight Crossroads Tape Recorder
DYEAR=2005
DGENRE=Progressive Drone Sludge
TTITLE0=Walking For Erskine Blues
TTITLE1=Kate's Blues #3
TTITLE2=Dharma Blues
TTITLE3=Deathbed Blues
EXTD=YEAR: 2005
EXTT0=
EXTT1=
EXTT2=
EXTT3=
PLAYORDER=
